<svg width="24" height="18" viewBox="0 0 24 18" fill="none" xmlns="http://www.w3.org/2000/svg">
<path d="M12 1.73138C9.81276 1.7332 7.71584 2.34554 6.16923 3.43407C4.62261 4.5226 3.75259 5.99844 3.75001 7.53786C3.74739 8.79587 4.33124 10.0197 5.41201 11.0217C5.41201 11.0217 5.63701 11.2302 5.67376 11.2603L12 16.5115L18.3293 11.2577C18.3623 11.2297 18.588 11.0217 18.588 11.0217L18.5888 11.0202C19.669 10.0186 20.2526 8.79529 20.25 7.53786C20.2474 5.99844 19.3774 4.5226 17.8308 3.43407C16.2842 2.34554 14.1873 1.7332 12 1.73138V1.73138ZM12 9.6493C11.4067 9.6493 10.8266 9.52547 10.3333 9.29346C9.83995 9.06145 9.45543 8.73169 9.22837 8.34587C9.00131 7.96005 8.9419 7.53551 9.05765 7.12593C9.17341 6.71635 9.45913 6.34013 9.87869 6.04484C10.2982 5.74955 10.8328 5.54845 11.4147 5.46698C11.9967 5.38551 12.5999 5.42733 13.1481 5.58714C13.6962 5.74695 14.1648 6.01758 14.4944 6.3648C14.8241 6.71203 15 7.12025 15 7.53786C14.999 8.09763 14.6826 8.63428 14.1202 9.0301C13.5578 9.42592 12.7954 9.6486 12 9.6493V9.6493Z" fill="#8F8F8F"/>
</svg>
