<svg width="24" height="18" viewBox="0 0 24 18" fill="none" xmlns="http://www.w3.org/2000/svg">
<path d="M20 8.40422H22C22 4.70296 18.127 1.9115 12.99 1.9115V3.35449C17.052 3.35449 20 5.47784 20 8.40422Z" fill="#8F8F8F"/>
<path d="M13 6.24043C15.103 6.24043 16 6.88761 16 8.40491H18C18 6.0781 16.225 4.79745 13 4.79745V6.24043ZM16.422 10.1675C16.2299 10.0415 15.9774 9.97431 15.7178 9.9801C15.4583 9.98589 15.212 10.0642 15.031 10.1985L12.638 11.9741C12.062 11.8948 10.904 11.6343 9.71204 10.7765C8.52004 9.91572 8.15904 9.07807 8.05204 8.66537L10.511 6.93812C10.6975 6.80762 10.8062 6.62991 10.8142 6.4426C10.8222 6.25529 10.7289 6.07308 10.554 5.93452L6.85904 3.00309C6.68408 2.8641 6.44092 2.77979 6.18119 2.76807C5.92146 2.75635 5.66564 2.81814 5.46804 2.94032L3.29804 4.28302C3.12515 4.40821 3.02196 4.57483 3.00804 4.75127C2.99304 4.93164 2.70704 9.20433 7.29904 12.5189C11.305 15.4085 16.323 15.6199 17.705 15.6199C17.907 15.6199 18.031 15.6155 18.064 15.6141C18.3086 15.6042 18.5394 15.5294 18.712 15.4041L20.572 13.8378C20.7415 13.6953 20.8273 13.5108 20.8113 13.3234C20.7952 13.136 20.6785 12.9605 20.486 12.8342L16.422 10.1675V10.1675Z" fill="#8F8F8F"/>
</svg>
